# xmcd
#
# Track frame offsets:
#	150
#	14342
#	28255
#	46695
#	68046
#	82684
#	98297
#	111720
#	131146
#	146081
#	161576
#	177326
#	195301
#	214597
#	228066
#	254258
#	271658
#	288608
#	309873
#	328397
#	346012
#
# Disc length: 4788
#
# Revision: 1
# Processed by: cddbd v1.5.1PL0 Copyright (c) Steve Scherf et al.
# Submitted via: ExactAudioCopy v0.95a3
# Normalized: r0:TDELIM( - )
#
DISCID=1f12b215
DTITLE=Various Artist - Музыкайф (Europa Plus Comp.)
DYEAR=2003
DGENRE=Pop
TTITLE0=Народный Артист - Зажигай
TTITLE1=Валерия - Часики
TTITLE2=Леонид Агутин/Отпетые Мошенники - Граница
TTITLE3=Benny Benassi - Satisfaction
TTITLE4=Triplex - Бригада (Remix)
TTITLE5=Блестящие - Апельсиновая Песня
TTITLE6=Angel City feat. Lara McAllen - Love Me Right
TTITLE7=Smash! - Молитва
TTITLE8=In-Grid - I'm Folle De Toi
TTITLE9=Премьер-Министр - 2 Минуты
TTITLE10=Кристина Орбакайте - Свет Твоей Любви
TTITLE11=Robbie Williams - Something Beautiful
TTITLE12=Катя Лель - Долетай
TTITLE13=Despina Vandi - Gia
TTITLE14=Plazma - A Bit Of Perfection
TTITLE15=Дискотека "Авария"/Моральный Кодекс - Первый Снег
TTITLE16=Никита - Так Странно (Remix)
TTITLE17=Фабрика - 5 Минут
TTITLE18=Чай Вдвоем - Желанная
TTITLE19=D'Sound - Do I Need A Reason
TTITLE20=Вячеслав Бутусов/Ю-Питер - Песня Идущего Домой
EXTD=
EXTT0=
EXTT1=
EXTT2=
EXTT3=
EXTT4=
EXTT5=
EXTT6=
EXTT7=
EXTT8=
EXTT9=
EXTT10=
EXTT11=
EXTT12=
EXTT13=
EXTT14=
EXTT15=
EXTT16=
EXTT17=
EXTT18=
EXTT19=
EXTT20=
PLAYORDER=
